<?xml version="1.0" standalone="no"?>
<!DOCTYPE svg PUBLIC "-//W3C//DTD SVG 20010904//EN"
 "http://www.w3.org/TR/2001/REC-SVG-20010904/DTD/svg10.dtd">
<svg version="1.0" xmlns="http://www.w3.org/2000/svg"
 width="1024.000000pt" height="1024.000000pt" viewBox="0 0 1024.000000 1024.000000"
 preserveAspectRatio="xMidYMid meet">

<g transform="translate(0.000000,1024.000000) scale(0.100000,-0.100000)"
fill="#000000" stroke="none">
<path d="M1100 5130 l0 -1350 4020 0 4020 0 0 1350 0 1350 -4020 0 -4020 0 0
-1350z m7930 6 l0 -1256 -3909 0 c-3714 0 -3909 1 -3912 18 -2 9 -4 51 -4 92
0 41 1 596 3 1232 l2 1158 2553 2 c1403 2 3163 4 3910 6 l1357 4 0 -1256z"/>
<path d="M1998 6042 l-398 -2 0 -900 0 -900 1335 0 1335 0 0 905 0 906 -937
-3 c-516 -2 -1117 -4 -1335 -6z m388 -397 c106 -31 164 -113 164 -230 0 -80
-26 -144 -71 -177 -31 -23 -37 -38 -16 -38 18 0 71 -57 92 -99 26 -52 30 -137
11 -205 -13 -44 -29 -70 -65 -106 -71 -71 -110 -80 -348 -80 l-193 0 0 475 0
475 188 0 c137 0 202 -4 238 -15z m504 -380 l0 -395 160 0 c182 0 165 11 154
-99 l-7 -61 -243 0 -244 0 0 475 0 475 90 0 90 0 0 -395z m585 42 c0 -327 1
-355 19 -391 46 -92 202 -87 242 9 11 28 14 102 14 385 l0 350 85 0 86 0 -3
-377 -3 -378 -25 -49 c-32 -63 -98 -120 -169 -147 -45 -17 -70 -20 -128 -16
-119 9 -196 54 -251 147 l-27 45 -3 388 -3 387 83 0 83 0 0 -353z"/>
<path d="M2130 5392 l0 -124 96 4 c94 3 96 4 125 36 23 25 29 42 29 77 0 97
-25 118 -158 125 l-92 5 0 -123z"/>
<path d="M2130 4993 l0 -128 99 2 c55 1 109 6 120 13 30 15 51 62 51 112 0 95
-47 128 -182 128 l-88 0 0 -127z"/>
<path d="M4540 5190 l0 -472 188 4 c211 3 241 12 301 85 63 76 71 118 71 370
0 282 -9 323 -84 398 -29 28 -69 57 -91 64 -25 9 -105 15 -212 18 l-173 5 0
-472z m360 283 c45 -50 52 -94 48 -312 -4 -268 -16 -289 -173 -299 l-85 -5 0
328 0 327 91 -4 c88 -3 92 -4 119 -35z"/>
<path d="M5386 5643 c-3 -10 -30 -126 -61 -258 -31 -132 -78 -332 -105 -445
-28 -113 -50 -209 -50 -213 0 -4 35 -7 78 -7 l78 0 18 93 c10 50 21 98 23 105
4 8 37 12 119 12 110 0 114 -1 119 -22 3 -13 13 -59 24 -103 l18 -80 76 -3
c44 -2 77 1 77 7 0 5 -29 128 -64 273 -35 144 -85 352 -111 461 l-48 197 -93
0 c-80 0 -93 -2 -98 -17z m174 -560 c0 -9 -23 -13 -81 -13 -73 0 -80 2 -74 18
5 14 74 329 76 350 1 10 79 -340 79 -355z"/>
<path d="M5910 5190 l0 -470 71 0 72 0 -5 340 c-2 187 -3 338 -2 337 2 -1 52
-135 113 -297 60 -162 112 -288 115 -280 6 16 60 163 146 400 29 80 57 149 61
154 4 5 5 -140 2 -323 l-6 -331 76 0 77 0 0 471 0 470 -90 -2 c-50 -2 -94 -8
-99 -13 -7 -10 -57 -146 -137 -375 -18 -52 -35 -88 -38 -80 -25 72 -116 320
-140 384 l-32 80 -92 3 -92 3 0 -471z"/>
<path d="M6767 5653 c-3 -5 -2 -216 1 -470 l5 -463 58 0 c33 0 62 -1 67 -2 4
-2 9 146 12 329 l5 332 93 -257 c51 -141 99 -270 105 -285 11 -27 18 -12 117
252 l105 280 3 -325 2 -324 70 0 70 0 0 465 0 465 -92 0 -93 0 -64 -183 c-35
-100 -73 -206 -84 -236 l-20 -54 -47 134 c-26 74 -65 182 -86 241 l-39 108
-92 0 c-50 0 -94 -3 -96 -7z"/>
<path d="M7790 5641 c0 -16 -87 -396 -179 -784 -17 -71 -31 -130 -31 -133 0
-2 34 -4 75 -4 85 0 73 -15 105 130 l16 75 115 3 115 3 23 -106 24 -105 79 0
c71 0 79 2 74 18 -12 39 -111 441 -156 633 -27 113 -53 225 -60 247 l-11 42
-94 0 c-86 0 -95 -2 -95 -19z m110 -241 c0 -11 16 -84 35 -164 19 -80 35 -150
35 -156 0 -6 -32 -10 -81 -10 -79 0 -81 1 -75 23 3 12 20 92 38 179 18 86 36
154 40 152 5 -3 8 -14 8 -24z"/>
<path d="M8292 5190 l3 -470 73 0 72 0 0 180 0 180 54 0 c47 0 54 -3 60 -22 3
-13 34 -94 68 -180 l63 -158 87 0 87 0 -33 73 c-19 39 -59 126 -91 192 -51
108 -55 121 -39 130 90 53 126 128 125 259 -1 95 -24 160 -76 212 -62 62 -113
74 -302 74 l-154 0 3 -470z m312 310 c40 -15 66 -66 66 -128 0 -104 -43 -142
-160 -142 l-72 0 4 140 3 140 67 0 c37 0 78 -4 92 -10z"/>
</g>
</svg>
